<svg xmlns="http://www.w3.org/2000/svg" xmlns:xlink="http://www.w3.org/1999/xlink" width="500" zoomAndPan="magnify" viewBox="0 0 375 374.999991" height="500" preserveAspectRatio="xMidYMid meet" version="1.0"><defs><g/><clipPath id="0a906cf7f7"><path d="M 69.800781 0 L 232.867188 0 L 232.867188 264.789062 L 69.800781 264.789062 Z M 69.800781 0 " clip-rule="nonzero"/></clipPath><clipPath id="203b541767"><path d="M 176.898438 113.679688 C 173.585938 113.679688 170.03125 115.496094 168.265625 119.644531 C 166.5 123.796875 165.519531 130.683594 165.027344 138.8125 C 174.816406 135.523438 181.773438 129.941406 183.683594 123.609375 C 185.050781 119.074219 183.613281 115.550781 179.839844 114.1875 C 178.921875 113.851562 177.921875 113.679688 176.898438 113.679688 Z M 191.898438 197.660156 C 192.277344 153.21875 203.488281 138.164062 213.398438 124.855469 C 221.453125 114.039062 228.410156 104.695312 228.410156 80.875 C 228.410156 38.414062 193.867188 3.871094 151.402344 3.871094 C 108.941406 3.867188 74.398438 38.414062 74.398438 80.875 C 74.398438 104.695312 81.355469 114.039062 89.410156 124.855469 C 99.320312 138.164062 110.53125 153.21875 110.910156 197.660156 L 134.164062 197.660156 C 134.316406 193.820312 134.714844 188.957031 135.160156 183.472656 C 136.046875 172.617188 137.210938 158.351562 136.78125 145.539062 C 129.964844 144.246094 123.582031 141.441406 119.007812 136.441406 C 112.472656 129.300781 112.867188 118.84375 116.980469 113.253906 C 119.808594 109.410156 123.988281 108.289062 128.15625 110.246094 C 137.023438 114.414062 140.425781 126.722656 141.332031 141.46875 C 147.460938 142.125 153.933594 141.625 159.648438 140.320312 C 159.859375 140.273438 160.066406 140.222656 160.277344 140.171875 C 160.769531 130.8125 161.863281 122.78125 163.976562 117.816406 C 167.285156 110.042969 175.449219 107.632812 181.429688 109.800781 C 186.492188 111.636719 190.535156 117.03125 188.148438 124.953125 C 185.652344 133.234375 177.050781 140.105469 164.789062 143.785156 C 164.289062 157.566406 164.902344 173.820312 165.375 186.394531 C 165.535156 190.652344 165.675781 194.449219 165.757812 197.660156 Z M 138.832031 197.660156 L 161.09375 197.660156 C 161.011719 194.503906 160.871094 190.761719 160.714844 186.566406 C 160.234375 173.765625 159.65625 158.40625 160.074219 145 C 154.519531 146.207031 147.976562 146.785156 141.539062 146.199219 C 141.871094 158.550781 140.765625 172.121094 139.808594 183.855469 C 139.371094 189.199219 138.984375 193.953125 138.832031 197.660156 Z M 124.179688 113.976562 C 122.890625 113.976562 121.734375 114.660156 120.734375 116.019531 C 118.101562 119.597656 117.230469 127.59375 122.449219 133.292969 C 125.933594 137.097656 130.945312 139.464844 136.535156 140.695312 C 135.652344 128.074219 132.859375 117.609375 126.171875 114.46875 C 125.476562 114.140625 124.8125 113.976562 124.179688 113.976562 Z M 136.441406 202.324219 L 102.683594 202.324219 C 101.875 202.324219 101.191406 203.007812 101.191406 203.816406 L 101.191406 217.800781 C 101.191406 218.609375 101.875 219.292969 102.683594 219.292969 L 199.949219 219.292969 C 200.757812 219.292969 201.441406 218.609375 201.441406 217.800781 L 201.441406 203.816406 C 201.441406 203.007812 200.757812 202.324219 199.949219 202.324219 Z M 164.429688 264.992188 L 138.203125 264.992188 C 130.167969 264.992188 123.632812 258.453125 123.632812 250.421875 L 123.632812 244.011719 L 112.710938 244.011719 C 105.894531 244.011719 100.351562 238.464844 100.351562 231.652344 L 100.351562 223.496094 C 98.113281 222.574219 96.53125 220.371094 96.53125 217.800781 L 96.53125 203.816406 C 96.53125 200.421875 99.289062 197.660156 102.683594 197.660156 L 106.246094 197.660156 C 105.871094 154.769531 95.148438 140.371094 85.667969 127.640625 C 77.476562 116.636719 69.734375 106.242188 69.734375 80.875 C 69.734375 35.84375 106.371094 -0.792969 151.402344 -0.792969 C 196.4375 -0.792969 233.074219 35.84375 233.074219 80.875 C 233.074219 106.242188 225.332031 116.636719 217.136719 127.640625 C 207.660156 140.371094 196.9375 154.769531 196.5625 197.660156 L 199.949219 197.660156 C 203.34375 197.660156 206.101562 200.421875 206.101562 203.816406 L 206.101562 217.800781 C 206.101562 220.371094 204.519531 222.574219 202.28125 223.496094 L 202.28125 231.652344 C 202.28125 238.464844 196.738281 244.011719 189.921875 244.011719 L 179 244.011719 L 179 250.421875 C 179 258.453125 172.464844 264.992188 164.429688 264.992188 Z M 128.292969 244.011719 L 128.296875 250.421875 C 128.296875 255.886719 132.738281 260.328125 138.203125 260.328125 L 164.429688 260.328125 C 169.894531 260.328125 174.339844 255.886719 174.339844 250.421875 L 174.339844 244.011719 Z M 105.015625 223.957031 L 105.015625 231.652344 C 105.015625 235.894531 108.46875 239.347656 112.710938 239.347656 L 189.921875 239.347656 C 194.167969 239.347656 197.617188 235.894531 197.617188 231.652344 L 197.617188 223.957031 Z M 105.015625 223.957031 " clip-rule="evenodd"/></clipPath><linearGradient x1="18.689974" gradientTransform="matrix(1.736286, 0, 0, 1.736286, 0.870683, -18.434048)" y1="44.386914" x2="154.801043" gradientUnits="userSpaceOnUse" y2="129.068578" id="d165e40d37"><stop stop-opacity="1" stop-color="rgb(100%, 100%, 100%)" offset="0"/><stop stop-opacity="1" stop-color="rgb(100%, 100%, 100%)" offset="0.0625"/><stop stop-opacity="1" stop-color="rgb(99.978638%, 99.984741%, 99.942017%)" offset="0.0703125"/><stop stop-opacity="1" stop-color="rgb(99.873352%, 99.905396%, 99.639893%)" offset="0.0742188"/><stop stop-opacity="1" stop-color="rgb(99.789429%, 99.841309%, 99.395752%)" offset="0.078125"/><stop stop-opacity="1" stop-color="rgb(99.703979%, 99.777222%, 99.151611%)" offset="0.0820312"/><stop stop-opacity="1" stop-color="rgb(99.620056%, 99.714661%, 98.907471%)" offset="0.0859375"/><stop stop-opacity="1" stop-color="rgb(99.534607%, 99.650574%, 98.66333%)" offset="0.0898438"/><stop stop-opacity="1" stop-color="rgb(99.450684%, 99.586487%, 98.419189%)" offset="0.09375"/><stop stop-opacity="1" stop-color="rgb(99.365234%, 99.5224%, 98.175049%)" offset="0.0976563"/><stop stop-opacity="1" stop-color="rgb(99.279785%, 99.459839%, 97.930908%)" offset="0.101563"/><stop stop-opacity="1" stop-color="rgb(99.194336%, 99.395752%, 97.686768%)" offset="0.105469"/><stop stop-opacity="1" stop-color="rgb(99.110413%, 99.331665%, 97.442627%)" offset="0.109375"/><stop stop-opacity="1" stop-color="rgb(99.024963%, 99.267578%, 97.198486%)" offset="0.113281"/><stop stop-opacity="1" stop-color="rgb(98.94104%, 99.205017%, 96.954346%)" offset="0.117188"/><stop stop-opacity="1" stop-color="rgb(98.855591%, 99.14093%, 96.710205%)" offset="0.121094"/><stop stop-opacity="1" stop-color="rgb(98.770142%, 99.076843%, 96.466064%)" offset="0.125"/><stop stop-opacity="1" stop-color="rgb(98.684692%, 99.012756%, 96.221924%)" offset="0.128906"/><stop stop-opacity="1" stop-color="rgb(98.600769%, 98.950195%, 95.977783%)" offset="0.132813"/><stop stop-opacity="1" stop-color="rgb(98.51532%, 98.886108%, 95.733643%)" offset="0.136719"/><stop stop-opacity="1" stop-color="rgb(98.431396%, 98.822021%, 95.489502%)" offset="0.140625"/><stop stop-opacity="1" stop-color="rgb(98.345947%, 98.757935%, 95.245361%)" offset="0.144531"/><stop stop-opacity="1" stop-color="rgb(98.260498%, 98.695374%, 95.001221%)" offset="0.148438"/><stop stop-opacity="1" stop-color="rgb(98.175049%, 98.631287%, 94.75708%)" offset="0.152344"/><stop stop-opacity="1" stop-color="rgb(98.091125%, 98.5672%, 94.512939%)" offset="0.15625"/><stop stop-opacity="1" stop-color="rgb(98.005676%, 98.503113%, 94.268799%)" offset="0.160156"/><stop stop-opacity="1" stop-color="rgb(97.921753%, 98.440552%, 94.024658%)" offset="0.164062"/><stop stop-opacity="1" stop-color="rgb(97.836304%, 98.376465%, 93.780518%)" offset="0.167969"/><stop stop-opacity="1" stop-color="rgb(97.75238%, 98.312378%, 93.536377%)" offset="0.171875"/><stop stop-opacity="1" stop-color="rgb(97.666931%, 98.248291%, 93.292236%)" offset="0.175781"/><stop stop-opacity="1" stop-color="rgb(97.581482%, 98.18573%, 93.048096%)" offset="0.179688"/><stop stop-opacity="1" stop-color="rgb(97.496033%, 98.121643%, 92.803955%)" offset="0.183594"/><stop stop-opacity="1" stop-color="rgb(97.412109%, 98.057556%, 92.559814%)" offset="0.1875"/><stop stop-opacity="1" stop-color="rgb(97.32666%, 97.993469%, 92.315674%)" offset="0.191406"/><stop stop-opacity="1" stop-color="rgb(97.242737%, 97.930908%, 92.071533%)" offset="0.195313"/><stop stop-opacity="1" stop-color="rgb(97.157288%, 97.866821%, 91.827393%)" offset="0.199219"/><stop stop-opacity="1" stop-color="rgb(97.071838%, 97.802734%, 91.583252%)" offset="0.203125"/><stop stop-opacity="1" stop-color="rgb(96.986389%, 97.738647%, 91.339111%)" offset="0.207031"/><stop stop-opacity="1" stop-color="rgb(96.902466%, 97.676086%, 91.094971%)" offset="0.210938"/><stop stop-opacity="1" stop-color="rgb(96.817017%, 97.612%, 90.85083%)" offset="0.214844"/><stop stop-opacity="1" stop-color="rgb(96.733093%, 97.547913%, 90.606689%)" offset="0.21875"/><stop stop-opacity="1" stop-color="rgb(96.647644%, 97.483826%, 90.362549%)" offset="0.222656"/><stop stop-opacity="1" stop-color="rgb(96.563721%, 97.421265%, 90.118408%)" offset="0.226562"/><stop stop-opacity="1" stop-color="rgb(96.478271%, 97.357178%, 89.874268%)" offset="0.230469"/><stop stop-opacity="1" stop-color="rgb(96.392822%, 97.293091%, 89.630127%)" offset="0.234375"/><stop stop-opacity="1" stop-color="rgb(96.307373%, 97.229004%, 89.38446%)" offset="0.238281"/><stop stop-opacity="1" stop-color="rgb(96.22345%, 97.166443%, 89.14032%)" offset="0.242188"/><stop stop-opacity="1" stop-color="rgb(96.138%, 97.102356%, 88.896179%)" offset="0.246094"/><stop stop-opacity="1" stop-color="rgb(96.054077%, 97.038269%, 88.652039%)" offset="0.25"/><stop stop-opacity="1" stop-color="rgb(95.968628%, 96.974182%, 88.407898%)" offset="0.253906"/><stop stop-opacity="1" stop-color="rgb(95.883179%, 96.911621%, 88.163757%)" offset="0.257812"/><stop stop-opacity="1" stop-color="rgb(95.797729%, 96.847534%, 87.919617%)" offset="0.261719"/><stop stop-opacity="1" stop-color="rgb(95.713806%, 96.783447%, 87.675476%)" offset="0.265625"/><stop stop-opacity="1" stop-color="rgb(95.628357%, 96.71936%, 87.431335%)" offset="0.269531"/><stop stop-opacity="1" stop-color="rgb(95.544434%, 96.656799%, 87.187195%)" offset="0.273438"/><stop stop-opacity="1" stop-color="rgb(95.458984%, 96.592712%, 86.943054%)" offset="0.277344"/><stop stop-opacity="1" stop-color="rgb(95.373535%, 96.528625%, 86.698914%)" offset="0.28125"/><stop stop-opacity="1" stop-color="rgb(95.288086%, 96.464539%, 86.454773%)" offset="0.285156"/><stop stop-opacity="1" stop-color="rgb(95.204163%, 96.401978%, 86.210632%)" offset="0.289062"/><stop stop-opacity="1" stop-color="rgb(95.118713%, 96.337891%, 85.966492%)" offset="0.292969"/><stop stop-opacity="1" stop-color="rgb(95.03479%, 96.273804%, 85.722351%)" offset="0.296875"/><stop stop-opacity="1" stop-color="rgb(94.949341%, 96.209717%, 85.47821%)" offset="0.300781"/><stop stop-opacity="1" stop-color="rgb(94.865417%, 96.147156%, 85.23407%)" offset="0.304688"/><stop stop-opacity="1" stop-color="rgb(94.779968%, 96.083069%, 84.989929%)" offset="0.308594"/><stop stop-opacity="1" stop-color="rgb(94.694519%, 96.018982%, 84.745789%)" offset="0.3125"/><stop stop-opacity="1" stop-color="rgb(94.60907%, 95.954895%, 84.501648%)" offset="0.316406"/><stop stop-opacity="1" stop-color="rgb(94.525146%, 95.892334%, 84.257507%)" offset="0.320312"/><stop stop-opacity="1" stop-color="rgb(94.439697%, 95.828247%, 84.013367%)" offset="0.324219"/><stop stop-opacity="1" stop-color="rgb(94.355774%, 95.76416%, 83.769226%)" offset="0.328125"/><stop stop-opacity="1" stop-color="rgb(94.270325%, 95.700073%, 83.525085%)" offset="0.332031"/><stop stop-opacity="1" stop-color="rgb(94.184875%, 95.637512%, 83.280945%)" offset="0.335937"/><stop stop-opacity="1" stop-color="rgb(94.099426%, 95.573425%, 83.036804%)" offset="0.339844"/><stop stop-opacity="1" stop-color="rgb(94.015503%, 95.509338%, 82.792664%)" offset="0.34375"/><stop stop-opacity="1" stop-color="rgb(93.930054%, 95.445251%, 82.548523%)" offset="0.347656"/><stop stop-opacity="1" stop-color="rgb(93.84613%, 95.38269%, 82.304382%)" offset="0.351562"/><stop stop-opacity="1" stop-color="rgb(93.760681%, 95.318604%, 82.060242%)" offset="0.355469"/><stop stop-opacity="1" stop-color="rgb(93.676758%, 95.254517%, 81.816101%)" offset="0.359375"/><stop stop-opacity="1" stop-color="rgb(93.591309%, 95.19043%, 81.57196%)" offset="0.363281"/><stop stop-opacity="1" stop-color="rgb(93.505859%, 95.127869%, 81.32782%)" offset="0.367187"/><stop stop-opacity="1" stop-color="rgb(93.42041%, 95.063782%, 81.083679%)" offset="0.371094"/><stop stop-opacity="1" stop-color="rgb(93.336487%, 94.999695%, 80.839539%)" offset="0.375"/><stop stop-opacity="1" stop-color="rgb(93.251038%, 94.935608%, 80.595398%)" offset="0.378906"/><stop stop-opacity="1" stop-color="rgb(93.167114%, 94.873047%, 80.351257%)" offset="0.382813"/><stop stop-opacity="1" stop-color="rgb(93.081665%, 94.80896%, 80.107117%)" offset="0.386719"/><stop stop-opacity="1" stop-color="rgb(92.996216%, 94.744873%, 79.862976%)" offset="0.390625"/><stop stop-opacity="1" stop-color="rgb(92.910767%, 94.680786%, 79.618835%)" offset="0.394531"/><stop stop-opacity="1" stop-color="rgb(92.826843%, 94.618225%, 79.374695%)" offset="0.398438"/><stop stop-opacity="1" stop-color="rgb(92.741394%, 94.554138%, 79.130554%)" offset="0.402344"/><stop stop-opacity="1" stop-color="rgb(92.657471%, 94.490051%, 78.886414%)" offset="0.40625"/><stop stop-opacity="1" stop-color="rgb(92.572021%, 94.425964%, 78.640747%)" offset="0.410156"/><stop stop-opacity="1" stop-color="rgb(92.486572%, 94.363403%, 78.396606%)" offset="0.414063"/><stop stop-opacity="1" stop-color="rgb(92.401123%, 94.299316%, 78.152466%)" offset="0.417969"/><stop stop-opacity="1" stop-color="rgb(92.3172%, 94.235229%, 77.908325%)" offset="0.421875"/><stop stop-opacity="1" stop-color="rgb(92.23175%, 94.171143%, 77.664185%)" offset="0.425781"/><stop stop-opacity="1" stop-color="rgb(92.147827%, 94.108582%, 77.420044%)" offset="0.429688"/><stop stop-opacity="1" stop-color="rgb(92.062378%, 94.044495%, 77.175903%)" offset="0.433594"/><stop stop-opacity="1" stop-color="rgb(91.978455%, 93.980408%, 76.931763%)" offset="0.4375"/><stop stop-opacity="1" stop-color="rgb(91.893005%, 93.916321%, 76.687622%)" offset="0.441406"/><stop stop-opacity="1" stop-color="rgb(91.807556%, 93.85376%, 76.443481%)" offset="0.445312"/><stop stop-opacity="1" stop-color="rgb(91.722107%, 93.789673%, 76.199341%)" offset="0.449219"/><stop stop-opacity="1" stop-color="rgb(91.638184%, 93.725586%, 75.9552%)" offset="0.453125"/><stop stop-opacity="1" stop-color="rgb(91.552734%, 93.661499%, 75.71106%)" offset="0.457031"/><stop stop-opacity="1" stop-color="rgb(91.468811%, 93.598938%, 75.466919%)" offset="0.460938"/><stop stop-opacity="1" stop-color="rgb(91.383362%, 93.534851%, 75.222778%)" offset="0.464844"/><stop stop-opacity="1" stop-color="rgb(91.297913%, 93.470764%, 74.978638%)" offset="0.46875"/><stop stop-opacity="1" stop-color="rgb(91.212463%, 93.406677%, 74.734497%)" offset="0.472656"/><stop stop-opacity="1" stop-color="rgb(91.12854%, 93.344116%, 74.490356%)" offset="0.476562"/><stop stop-opacity="1" stop-color="rgb(91.043091%, 93.280029%, 74.246216%)" offset="0.480469"/><stop stop-opacity="1" stop-color="rgb(90.959167%, 93.215942%, 74.002075%)" offset="0.484375"/><stop stop-opacity="1" stop-color="rgb(90.873718%, 93.151855%, 73.757935%)" offset="0.488281"/><stop stop-opacity="1" stop-color="rgb(90.789795%, 93.089294%, 73.513794%)" offset="0.492188"/><stop stop-opacity="1" stop-color="rgb(90.704346%, 93.025208%, 73.269653%)" offset="0.496094"/><stop stop-opacity="1" stop-color="rgb(90.618896%, 92.961121%, 73.025513%)" offset="0.5"/><stop stop-opacity="1" stop-color="rgb(90.270996%, 92.597961%, 72.520447%)" offset="0.503906"/><stop stop-opacity="1" stop-color="rgb(89.924622%, 92.234802%, 72.016907%)" offset="0.507812"/><stop stop-opacity="1" stop-color="rgb(89.52179%, 91.80603%, 71.456909%)" offset="0.511719"/><stop stop-opacity="1" stop-color="rgb(89.118958%, 91.378784%, 70.896912%)" offset="0.515625"/><stop stop-opacity="1" stop-color="rgb(88.716125%, 90.950012%, 70.336914%)" offset="0.519531"/><stop stop-opacity="1" stop-color="rgb(88.313293%, 90.522766%, 69.776917%)" offset="0.523438"/><stop stop-opacity="1" stop-color="rgb(87.908936%, 90.093994%, 69.216919%)" offset="0.527344"/><stop stop-opacity="1" stop-color="rgb(87.506104%, 89.665222%, 68.656921%)" offset="0.53125"/><stop stop-opacity="1" stop-color="rgb(87.103271%, 89.23645%, 68.096924%)" offset="0.535156"/><stop stop-opacity="1" stop-color="rgb(86.700439%, 88.809204%, 67.536926%)" offset="0.539062"/><stop stop-opacity="1" stop-color="rgb(86.296082%, 88.380432%, 66.976929%)" offset="0.542969"/><stop stop-opacity="1" stop-color="rgb(85.89325%, 87.953186%, 66.416931%)" offset="0.546875"/><stop stop-opacity="1" stop-color="rgb(85.490417%, 87.524414%, 65.856934%)" offset="0.550781"/><stop stop-opacity="1" stop-color="rgb(85.087585%, 87.097168%, 65.296936%)" offset="0.554688"/><stop stop-opacity="1" stop-color="rgb(84.684753%, 86.668396%, 64.736938%)" offset="0.558594"/><stop stop-opacity="1" stop-color="rgb(84.281921%, 86.24115%, 64.176941%)" offset="0.5625"/><stop stop-opacity="1" stop-color="rgb(83.877563%, 85.812378%, 63.616943%)" offset="0.566406"/><stop stop-opacity="1" stop-color="rgb(83.474731%, 85.385132%, 63.056946%)" offset="0.570312"/><stop stop-opacity="1" stop-color="rgb(83.071899%, 84.95636%, 62.496948%)" offset="0.574219"/><stop stop-opacity="1" stop-color="rgb(82.669067%, 84.529114%, 61.936951%)" offset="0.578125"/><stop stop-opacity="1" stop-color="rgb(82.266235%, 84.100342%, 61.375427%)" offset="0.582031"/><stop stop-opacity="1" stop-color="rgb(81.863403%, 83.673096%, 60.81543%)" offset="0.585938"/><stop stop-opacity="1" stop-color="rgb(81.459045%, 83.244324%, 60.255432%)" offset="0.589844"/><stop stop-opacity="1" stop-color="rgb(81.056213%, 82.817078%, 59.695435%)" offset="0.59375"/><stop stop-opacity="1" stop-color="rgb(80.653381%, 82.388306%, 59.135437%)" offset="0.597656"/><stop stop-opacity="1" stop-color="rgb(80.250549%, 81.96106%, 58.575439%)" offset="0.601562"/><stop stop-opacity="1" stop-color="rgb(79.846191%, 81.532288%, 58.015442%)" offset="0.605469"/><stop stop-opacity="1" stop-color="rgb(79.443359%, 81.105042%, 57.455444%)" offset="0.609375"/><stop stop-opacity="1" stop-color="rgb(79.040527%, 80.67627%, 56.895447%)" offset="0.613281"/><stop stop-opacity="1" stop-color="rgb(78.637695%, 80.249023%, 56.335449%)" offset="0.617188"/><stop stop-opacity="1" stop-color="rgb(78.234863%, 79.820251%, 55.775452%)" offset="0.621094"/><stop stop-opacity="1" stop-color="rgb(77.832031%, 79.393005%, 55.215454%)" offset="0.625"/><stop stop-opacity="1" stop-color="rgb(77.427673%, 78.964233%, 54.655457%)" offset="0.628906"/><stop stop-opacity="1" stop-color="rgb(77.024841%, 78.536987%, 54.095459%)" offset="0.632812"/><stop stop-opacity="1" stop-color="rgb(76.622009%, 78.108215%, 53.535461%)" offset="0.636719"/><stop stop-opacity="1" stop-color="rgb(76.219177%, 77.680969%, 52.975464%)" offset="0.640625"/><stop stop-opacity="1" stop-color="rgb(75.814819%, 77.252197%, 52.415466%)" offset="0.644531"/><stop stop-opacity="1" stop-color="rgb(75.411987%, 76.824951%, 51.855469%)" offset="0.648437"/><stop stop-opacity="1" stop-color="rgb(75.009155%, 76.396179%, 51.295471%)" offset="0.652344"/><stop stop-opacity="1" stop-color="rgb(74.606323%, 75.967407%, 50.735474%)" offset="0.65625"/><stop stop-opacity="1" stop-color="rgb(74.203491%, 75.538635%, 50.175476%)" offset="0.660156"/><stop stop-opacity="1" stop-color="rgb(73.800659%, 75.111389%, 49.615479%)" offset="0.664062"/><stop stop-opacity="1" stop-color="rgb(73.396301%, 74.682617%, 49.055481%)" offset="0.667969"/><stop stop-opacity="1" stop-color="rgb(72.993469%, 74.255371%, 48.495483%)" offset="0.671875"/><stop stop-opacity="1" stop-color="rgb(72.590637%, 73.826599%, 47.935486%)" offset="0.675781"/><stop stop-opacity="1" stop-color="rgb(72.187805%, 73.399353%, 47.375488%)" offset="0.679687"/><stop stop-opacity="1" stop-color="rgb(71.783447%, 72.970581%, 46.815491%)" offset="0.683594"/><stop stop-opacity="1" stop-color="rgb(71.380615%, 72.543335%, 46.255493%)" offset="0.6875"/><stop stop-opacity="1" stop-color="rgb(70.977783%, 72.114563%, 45.695496%)" offset="0.691406"/><stop stop-opacity="1" stop-color="rgb(70.574951%, 71.687317%, 45.135498%)" offset="0.695312"/><stop stop-opacity="1" stop-color="rgb(70.172119%, 71.258545%, 44.5755%)" offset="0.699219"/><stop stop-opacity="1" stop-color="rgb(69.769287%, 70.831299%, 44.015503%)" offset="0.703125"/><stop stop-opacity="1" stop-color="rgb(69.364929%, 70.402527%, 43.455505%)" offset="0.707031"/><stop stop-opacity="1" stop-color="rgb(68.962097%, 69.975281%, 42.895508%)" offset="0.710937"/><stop stop-opacity="1" stop-color="rgb(68.559265%, 69.546509%, 42.33551%)" offset="0.714844"/><stop stop-opacity="1" stop-color="rgb(68.156433%, 69.119263%, 41.775513%)" offset="0.71875"/><stop stop-opacity="1" stop-color="rgb(67.752075%, 68.690491%, 41.215515%)" offset="0.722656"/><stop stop-opacity="1" stop-color="rgb(67.349243%, 68.263245%, 40.655518%)" offset="0.726562"/><stop stop-opacity="1" stop-color="rgb(66.946411%, 67.834473%, 40.093994%)" offset="0.730469"/><stop stop-opacity="1" stop-color="rgb(66.543579%, 67.407227%, 39.533997%)" offset="0.734375"/><stop stop-opacity="1" stop-color="rgb(66.140747%, 66.978455%, 38.973999%)" offset="0.738281"/><stop stop-opacity="1" stop-color="rgb(65.737915%, 66.551208%, 38.414001%)" offset="0.742187"/><stop stop-opacity="1" stop-color="rgb(65.333557%, 66.122437%, 37.854004%)" offset="0.746094"/><stop stop-opacity="1" stop-color="rgb(64.930725%, 65.69519%, 37.294006%)" offset="0.75"/><stop stop-opacity="1" stop-color="rgb(64.527893%, 65.266418%, 36.734009%)" offset="0.753906"/><stop stop-opacity="1" stop-color="rgb(64.125061%, 64.839172%, 36.174011%)" offset="0.757813"/><stop stop-opacity="1" stop-color="rgb(63.720703%, 64.4104%, 35.614014%)" offset="0.761719"/><stop stop-opacity="1" stop-color="rgb(63.317871%, 63.983154%, 35.054016%)" offset="0.765625"/><stop stop-opacity="1" stop-color="rgb(62.915039%, 63.554382%, 34.494019%)" offset="0.769531"/><stop stop-opacity="1" stop-color="rgb(62.512207%, 63.127136%, 33.934021%)" offset="0.773438"/><stop stop-opacity="1" stop-color="rgb(62.109375%, 62.698364%, 33.374023%)" offset="0.777344"/><stop stop-opacity="1" stop-color="rgb(61.706543%, 62.271118%, 32.814026%)" offset="0.78125"/><stop stop-opacity="1" stop-color="rgb(61.302185%, 61.842346%, 32.254028%)" offset="0.785156"/><stop stop-opacity="1" stop-color="rgb(60.899353%, 61.413574%, 31.694031%)" offset="0.789063"/><stop stop-opacity="1" stop-color="rgb(60.496521%, 60.984802%, 31.134033%)" offset="0.792969"/><stop stop-opacity="1" stop-color="rgb(60.093689%, 60.557556%, 30.574036%)" offset="0.796875"/><stop stop-opacity="1" stop-color="rgb(59.689331%, 60.128784%, 30.014038%)" offset="0.800781"/><stop stop-opacity="1" stop-color="rgb(59.286499%, 59.701538%, 29.454041%)" offset="0.804688"/><stop stop-opacity="1" stop-color="rgb(58.883667%, 59.272766%, 28.894043%)" offset="0.808594"/><stop stop-opacity="1" stop-color="rgb(58.480835%, 58.84552%, 28.334045%)" offset="0.8125"/><stop stop-opacity="1" stop-color="rgb(58.078003%, 58.416748%, 27.774048%)" offset="0.816406"/><stop stop-opacity="1" stop-color="rgb(57.675171%, 57.989502%, 27.21405%)" offset="0.820313"/><stop stop-opacity="1" stop-color="rgb(57.270813%, 57.56073%, 26.654053%)" offset="0.824219"/><stop stop-opacity="1" stop-color="rgb(56.867981%, 57.133484%, 26.094055%)" offset="0.828125"/><stop stop-opacity="1" stop-color="rgb(56.465149%, 56.704712%, 25.534058%)" offset="0.832031"/><stop stop-opacity="1" stop-color="rgb(56.062317%, 56.277466%, 24.97406%)" offset="0.835938"/><stop stop-opacity="1" stop-color="rgb(55.657959%, 55.848694%, 24.414062%)" offset="0.839844"/><stop stop-opacity="1" stop-color="rgb(55.255127%, 55.421448%, 23.854065%)" offset="0.84375"/><stop stop-opacity="1" stop-color="rgb(54.852295%, 54.992676%, 23.294067%)" offset="0.847656"/><stop stop-opacity="1" stop-color="rgb(54.449463%, 54.56543%, 22.73407%)" offset="0.851563"/><stop stop-opacity="1" stop-color="rgb(54.046631%, 54.136658%, 22.174072%)" offset="0.855469"/><stop stop-opacity="1" stop-color="rgb(53.643799%, 53.709412%, 21.614075%)" offset="0.859375"/><stop stop-opacity="1" stop-color="rgb(53.239441%, 53.28064%, 21.054077%)" offset="0.863281"/><stop stop-opacity="1" stop-color="rgb(52.836609%, 52.853394%, 20.49408%)" offset="0.867188"/><stop stop-opacity="1" stop-color="rgb(52.433777%, 52.424622%, 19.932556%)" offset="0.871094"/><stop stop-opacity="1" stop-color="rgb(52.030945%, 51.997375%, 19.372559%)" offset="0.875"/><stop stop-opacity="1" stop-color="rgb(51.628113%, 51.568604%, 18.812561%)" offset="0.878906"/><stop stop-opacity="1" stop-color="rgb(51.225281%, 51.141357%, 18.252563%)" offset="0.882812"/><stop stop-opacity="1" stop-color="rgb(50.820923%, 50.712585%, 17.692566%)" offset="0.886719"/><stop stop-opacity="1" stop-color="rgb(50.418091%, 50.285339%, 17.132568%)" offset="0.890625"/><stop stop-opacity="1" stop-color="rgb(50.015259%, 49.856567%, 16.572571%)" offset="0.894531"/><stop stop-opacity="1" stop-color="rgb(49.612427%, 49.429321%, 16.012573%)" offset="0.898438"/><stop stop-opacity="1" stop-color="rgb(49.208069%, 49.000549%, 15.452576%)" offset="0.902344"/><stop stop-opacity="1" stop-color="rgb(48.805237%, 48.573303%, 14.892578%)" offset="0.90625"/><stop stop-opacity="1" stop-color="rgb(48.402405%, 48.144531%, 14.332581%)" offset="0.910156"/><stop stop-opacity="1" stop-color="rgb(47.999573%, 47.715759%, 13.772583%)" offset="0.914062"/><stop stop-opacity="1" stop-color="rgb(47.596741%, 47.286987%, 13.212585%)" offset="0.917969"/><stop stop-opacity="1" stop-color="rgb(47.193909%, 46.859741%, 12.652588%)" offset="0.921875"/><stop stop-opacity="1" stop-color="rgb(46.789551%, 46.430969%, 12.09259%)" offset="0.925781"/><stop stop-opacity="1" stop-color="rgb(46.386719%, 46.003723%, 11.532593%)" offset="0.929688"/><stop stop-opacity="1" stop-color="rgb(46.327209%, 45.941162%, 11.450195%)" offset="0.9375"/><stop stop-opacity="1" stop-color="rgb(46.269226%, 45.878601%, 11.369324%)" offset="1"/></linearGradient><clipPath id="20456fc4c1"><path d="M 29 280 L 277 280 L 277 372.480469 L 29 372.480469 Z M 29 280 " clip-rule="nonzero"/></clipPath><clipPath id="5260c921cb"><rect x="0" width="248" y="0" height="93"/></clipPath><clipPath id="f1dd32a08f"><rect x="0" width="304" y="0" height="373"/></clipPath></defs><g transform="matrix(1, 0, 0, 1, 36, 0)"><g clip-path="url(#f1dd32a08f)"><g clip-path="url(#0a906cf7f7)"><g clip-path="url(#203b541767)"><path fill="url(#d165e40d37)" d="M 69.800781 0 L 69.800781 264.789062 L 232.867188 264.789062 L 232.867188 0 Z M 69.800781 0 " fill-rule="nonzero"/></g></g><g clip-path="url(#20456fc4c1)"><g transform="matrix(1, 0, 0, 1, 29, 280)"><g clip-path="url(#5260c921cb)"><g fill="#76751d" fill-opacity="1"><g transform="translate(0.664865, 35.411063)"><g><path d="M 2.125 -8.59375 L 3.46875 -8.59375 C 3.644531 -7.5 3.96875 -6.507812 4.4375 -5.625 C 4.914062 -4.75 5.515625 -4.003906 6.234375 -3.390625 C 6.953125 -2.785156 7.78125 -2.316406 8.71875 -1.984375 C 9.65625 -1.660156 10.675781 -1.5 11.78125 -1.5 C 13.582031 -1.5 15.003906 -1.925781 16.046875 -2.78125 C 17.097656 -3.632812 17.625 -4.789062 17.625 -6.25 C 17.625 -6.863281 17.519531 -7.425781 17.3125 -7.9375 C 17.113281 -8.445312 16.769531 -8.9375 16.28125 -9.40625 C 15.789062 -9.882812 15.132812 -10.351562 14.3125 -10.8125 C 13.5 -11.28125 12.472656 -11.785156 11.234375 -12.328125 C 9.722656 -12.984375 8.453125 -13.613281 7.421875 -14.21875 C 6.398438 -14.832031 5.582031 -15.46875 4.96875 -16.125 C 4.363281 -16.789062 3.929688 -17.492188 3.671875 -18.234375 C 3.421875 -18.972656 3.296875 -19.820312 3.296875 -20.78125 C 3.296875 -21.894531 3.492188 -22.925781 3.890625 -23.875 C 4.296875 -24.832031 4.863281 -25.65625 5.59375 -26.34375 C 6.320312 -27.039062 7.1875 -27.578125 8.1875 -27.953125 C 9.1875 -28.335938 10.285156 -28.53125 11.484375 -28.53125 C 12.554688 -28.53125 13.554688 -28.359375 14.484375 -28.015625 C 15.410156 -27.671875 16.347656 -27.125 17.296875 -26.375 L 18.25 -28.015625 L 19.09375 -28.015625 L 19.5 -20.734375 L 18.140625 -20.734375 C 17.554688 -22.734375 16.707031 -24.222656 15.59375 -25.203125 C 14.488281 -26.179688 13.15625 -26.671875 11.59375 -26.671875 C 10.101562 -26.671875 8.921875 -26.300781 8.046875 -25.5625 C 7.171875 -24.832031 6.734375 -23.847656 6.734375 -22.609375 C 6.734375 -22.023438 6.828125 -21.492188 7.015625 -21.015625 C 7.210938 -20.535156 7.53125 -20.082031 7.96875 -19.65625 C 8.40625 -19.226562 8.976562 -18.800781 9.6875 -18.375 C 10.394531 -17.945312 11.273438 -17.503906 12.328125 -17.046875 C 14.128906 -16.242188 15.628906 -15.492188 16.828125 -14.796875 C 18.023438 -14.097656 18.972656 -13.398438 19.671875 -12.703125 C 20.378906 -12.015625 20.878906 -11.285156 21.171875 -10.515625 C 21.472656 -9.742188 21.625 -8.882812 21.625 -7.9375 C 21.625 -6.71875 21.378906 -5.59375 20.890625 -4.5625 C 20.398438 -3.539062 19.710938 -2.664062 18.828125 -1.9375 C 17.953125 -1.207031 16.90625 -0.640625 15.6875 -0.234375 C 14.46875 0.160156 13.128906 0.359375 11.671875 0.359375 C 10.273438 0.359375 9.019531 0.164062 7.90625 -0.21875 C 6.800781 -0.613281 5.675781 -1.269531 4.53125 -2.1875 L 3.515625 -0.40625 L 2.671875 -0.40625 Z M 2.125 -8.59375 "/></g></g></g><g fill="#76751d" fill-opacity="1"><g transform="translate(27.511407, 35.411063)"><g><path d="M 17.296875 -28.53125 C 19.441406 -28.53125 21.441406 -28.148438 23.296875 -27.390625 C 25.148438 -26.640625 26.757812 -25.601562 28.125 -24.28125 C 29.488281 -22.96875 30.5625 -21.421875 31.34375 -19.640625 C 32.125 -17.859375 32.515625 -15.929688 32.515625 -13.859375 C 32.515625 -11.890625 32.117188 -10.035156 31.328125 -8.296875 C 30.535156 -6.566406 29.457031 -5.0625 28.09375 -3.78125 C 26.726562 -2.5 25.117188 -1.488281 23.265625 -0.75 C 21.410156 -0.0078125 19.421875 0.359375 17.296875 0.359375 C 15.179688 0.359375 13.195312 -0.0078125 11.34375 -0.75 C 9.488281 -1.488281 7.878906 -2.5 6.515625 -3.78125 C 5.148438 -5.0625 4.066406 -6.566406 3.265625 -8.296875 C 2.472656 -10.035156 2.078125 -11.890625 2.078125 -13.859375 C 2.078125 -15.929688 2.46875 -17.859375 3.25 -19.640625 C 4.03125 -21.421875 5.101562 -22.96875 6.46875 -24.28125 C 7.832031 -25.601562 9.441406 -26.640625 11.296875 -27.390625 C 13.148438 -28.148438 15.148438 -28.53125 17.296875 -28.53125 Z M 17.296875 -1.640625 C 18.910156 -1.640625 20.359375 -1.921875 21.640625 -2.484375 C 22.921875 -3.046875 24.015625 -3.847656 24.921875 -4.890625 C 25.835938 -5.941406 26.539062 -7.21875 27.03125 -8.71875 C 27.519531 -10.21875 27.765625 -11.894531 27.765625 -13.75 C 27.765625 -15.695312 27.519531 -17.457031 27.03125 -19.03125 C 26.539062 -20.601562 25.84375 -21.945312 24.9375 -23.0625 C 24.039062 -24.175781 22.945312 -25.03125 21.65625 -25.625 C 20.363281 -26.21875 18.910156 -26.515625 17.296875 -26.515625 C 15.691406 -26.515625 14.242188 -26.21875 12.953125 -25.625 C 11.660156 -25.03125 10.5625 -24.175781 9.65625 -23.0625 C 8.75 -21.945312 8.050781 -20.601562 7.5625 -19.03125 C 7.082031 -17.457031 6.84375 -15.695312 6.84375 -13.75 C 6.84375 -11.894531 7.082031 -10.21875 7.5625 -8.71875 C 8.050781 -7.21875 8.75 -5.941406 9.65625 -4.890625 C 10.5625 -3.847656 11.660156 -3.046875 12.953125 -2.484375 C 14.242188 -1.921875 15.691406 -1.640625 17.296875 -1.640625 Z M 17.296875 -1.640625 "/></g></g></g><g fill="#76751d" fill-opacity="1"><g transform="translate(64.89129, 35.411063)"><g><path d="M 25.28125 0 L 1.640625 0 L 1.640625 -1.390625 C 2.492188 -1.410156 3.179688 -1.484375 3.703125 -1.609375 C 4.234375 -1.734375 4.644531 -1.941406 4.9375 -2.234375 C 5.226562 -2.523438 5.421875 -2.9375 5.515625 -3.46875 C 5.617188 -4.007812 5.671875 -4.707031 5.671875 -5.5625 L 5.671875 -22.609375 C 5.671875 -23.460938 5.625 -24.148438 5.53125 -24.671875 C 5.445312 -25.191406 5.273438 -25.601562 5.015625 -25.90625 C 4.765625 -26.21875 4.394531 -26.425781 3.90625 -26.53125 C 3.425781 -26.644531 2.796875 -26.726562 2.015625 -26.78125 L 2.015625 -28.171875 L 13.125 -28.171875 L 13.125 -26.78125 C 12.351562 -26.75 11.726562 -26.671875 11.25 -26.546875 C 10.769531 -26.429688 10.398438 -26.210938 10.140625 -25.890625 C 9.890625 -25.578125 9.722656 -25.140625 9.640625 -24.578125 C 9.554688 -24.015625 9.515625 -23.269531 9.515625 -22.34375 L 9.515625 -6.578125 C 9.515625 -5.554688 9.613281 -4.722656 9.8125 -4.078125 C 10.019531 -3.429688 10.375 -2.929688 10.875 -2.578125 C 11.375 -2.222656 12.039062 -1.976562 12.875 -1.84375 C 13.707031 -1.707031 14.753906 -1.640625 16.015625 -1.640625 C 17.410156 -1.640625 18.582031 -1.71875 19.53125 -1.875 C 20.476562 -2.039062 21.273438 -2.320312 21.921875 -2.71875 C 22.566406 -3.125 23.078125 -3.6875 23.453125 -4.40625 C 23.835938 -5.125 24.164062 -6.054688 24.4375 -7.203125 L 25.828125 -7.203125 Z M 25.28125 0 "/></g></g></g><g fill="#76751d" fill-opacity="1"><g transform="translate(94.041885, 35.411063)"><g><path d="M 26.40625 -11.34375 C 26.40625 -9.414062 26.21875 -7.71875 25.84375 -6.25 C 25.46875 -4.789062 24.859375 -3.570312 24.015625 -2.59375 C 23.171875 -1.625 22.078125 -0.890625 20.734375 -0.390625 C 19.398438 0.109375 17.78125 0.359375 15.875 0.359375 C 14.070312 0.359375 12.5 0.1875 11.15625 -0.15625 C 9.8125 -0.507812 8.6875 -1.09375 7.78125 -1.90625 C 6.882812 -2.726562 6.21875 -3.796875 5.78125 -5.109375 C 5.34375 -6.429688 5.125 -8.054688 5.125 -9.984375 L 5.125 -19.640625 C 5.125 -21.441406 5.078125 -22.832031 4.984375 -23.8125 C 4.898438 -24.789062 4.65625 -25.507812 4.25 -25.96875 C 3.945312 -26.289062 3.546875 -26.503906 3.046875 -26.609375 C 2.546875 -26.722656 1.882812 -26.78125 1.0625 -26.78125 L 1.0625 -28.171875 L 13.53125 -28.171875 L 13.53125 -26.78125 C 12.707031 -26.78125 12.035156 -26.726562 11.515625 -26.625 C 11.003906 -26.53125 10.601562 -26.285156 10.3125 -25.890625 C 9.96875 -25.453125 9.75 -24.75 9.65625 -23.78125 C 9.5625 -22.820312 9.515625 -21.441406 9.515625 -19.640625 L 9.515625 -9.6875 C 9.515625 -8.445312 9.640625 -7.34375 9.890625 -6.375 C 10.148438 -5.414062 10.570312 -4.597656 11.15625 -3.921875 C 11.738281 -3.253906 12.5 -2.75 13.4375 -2.40625 C 14.375 -2.070312 15.53125 -1.90625 16.90625 -1.90625 C 19.34375 -1.90625 21.171875 -2.582031 22.390625 -3.9375 C 23.609375 -5.289062 24.21875 -7.28125 24.21875 -9.90625 L 24.21875 -18.734375 C 24.21875 -20.898438 24.128906 -22.539062 23.953125 -23.65625 C 23.785156 -24.78125 23.46875 -25.578125 23 -26.046875 C 22.664062 -26.359375 22.238281 -26.554688 21.71875 -26.640625 C 21.207031 -26.734375 20.578125 -26.78125 19.828125 -26.78125 L 19.828125 -28.171875 L 30.4375 -28.171875 L 30.4375 -26.78125 C 29.65625 -26.78125 29.015625 -26.71875 28.515625 -26.59375 C 28.015625 -26.46875 27.617188 -26.195312 27.328125 -25.78125 C 26.960938 -25.269531 26.71875 -24.472656 26.59375 -23.390625 C 26.46875 -22.304688 26.40625 -20.753906 26.40625 -18.734375 Z M 26.40625 -11.34375 "/></g></g></g><g fill="#76751d" fill-opacity="1"><g transform="translate(128.788511, 35.411063)"><g><path d="M 28.75 -21.171875 L 27.25 -21.171875 C 27.175781 -22.222656 27.003906 -23.101562 26.734375 -23.8125 C 26.472656 -24.519531 26.09375 -25.070312 25.59375 -25.46875 C 25.09375 -25.875 24.460938 -26.160156 23.703125 -26.328125 C 22.941406 -26.503906 22.039062 -26.59375 21 -26.59375 C 20.09375 -26.59375 19.363281 -26.570312 18.8125 -26.53125 C 18.269531 -26.5 17.851562 -26.429688 17.5625 -26.328125 C 17.269531 -26.234375 17.078125 -26.117188 16.984375 -25.984375 C 16.898438 -25.847656 16.859375 -25.671875 16.859375 -25.453125 L 16.859375 -5.890625 C 16.859375 -5.109375 16.910156 -4.4375 17.015625 -3.875 C 17.128906 -3.3125 17.347656 -2.851562 17.671875 -2.5 C 18.003906 -2.144531 18.484375 -1.875 19.109375 -1.6875 C 19.734375 -1.507812 20.554688 -1.410156 21.578125 -1.390625 L 21.578125 0 L 7.75 0 L 7.75 -1.390625 C 8.78125 -1.410156 9.609375 -1.507812 10.234375 -1.6875 C 10.867188 -1.875 11.351562 -2.144531 11.6875 -2.5 C 12.019531 -2.851562 12.238281 -3.3125 12.34375 -3.875 C 12.457031 -4.4375 12.515625 -5.109375 12.515625 -5.890625 L 12.515625 -25.453125 C 12.515625 -25.671875 12.46875 -25.847656 12.375 -25.984375 C 12.289062 -26.117188 12.117188 -26.234375 11.859375 -26.328125 C 11.609375 -26.429688 11.25 -26.5 10.78125 -26.53125 C 10.320312 -26.570312 9.703125 -26.59375 8.921875 -26.59375 C 7.972656 -26.59375 7.085938 -26.554688 6.265625 -26.484375 C 5.453125 -26.410156 4.742188 -26.195312 4.140625 -25.84375 C 3.546875 -25.488281 3.066406 -24.945312 2.703125 -24.21875 C 2.335938 -23.488281 2.144531 -22.472656 2.125 -21.171875 L 0.765625 -21.171875 L 0.765625 -28.171875 L 28.390625 -28.171875 Z M 28.75 -21.171875 "/></g></g></g><g fill="#76751d" fill-opacity="1"><g transform="translate(161.413819, 35.411063)"><g><path d="M 9.515625 -6.90625 C 9.515625 -5.6875 9.5625 -4.722656 9.65625 -4.015625 C 9.75 -3.316406 9.9375 -2.769531 10.21875 -2.375 C 10.5 -1.988281 10.898438 -1.734375 11.421875 -1.609375 C 11.953125 -1.484375 12.644531 -1.410156 13.5 -1.390625 L 13.5 0 L 1.640625 0 L 1.640625 -1.390625 C 2.492188 -1.410156 3.179688 -1.488281 3.703125 -1.625 C 4.234375 -1.757812 4.644531 -2.007812 4.9375 -2.375 C 5.226562 -2.738281 5.421875 -3.253906 5.515625 -3.921875 C 5.617188 -4.597656 5.671875 -5.507812 5.671875 -6.65625 L 5.671875 -21.515625 C 5.671875 -22.535156 5.625 -23.378906 5.53125 -24.046875 C 5.445312 -24.722656 5.273438 -25.253906 5.015625 -25.640625 C 4.765625 -26.023438 4.394531 -26.296875 3.90625 -26.453125 C 3.425781 -26.617188 2.796875 -26.726562 2.015625 -26.78125 L 2.015625 -28.171875 L 13.125 -28.171875 L 13.125 -26.78125 C 12.351562 -26.75 11.726562 -26.644531 11.25 -26.46875 C 10.769531 -26.300781 10.398438 -26.015625 10.140625 -25.609375 C 9.890625 -25.210938 9.722656 -24.660156 9.640625 -23.953125 C 9.554688 -23.242188 9.515625 -22.34375 9.515625 -21.25 Z M 9.515625 -6.90625 "/></g></g></g><g fill="#76751d" fill-opacity="1"><g transform="translate(179.848248, 35.411063)"><g><path d="M 17.84375 -10.203125 L 8.078125 -10.203125 C 7.671875 -9.203125 7.316406 -8.316406 7.015625 -7.546875 C 6.722656 -6.785156 6.484375 -6.125 6.296875 -5.5625 C 6.117188 -5 5.992188 -4.519531 5.921875 -4.125 C 5.847656 -3.738281 5.8125 -3.425781 5.8125 -3.1875 C 5.8125 -2.5 6.03125 -2.023438 6.46875 -1.765625 C 6.90625 -1.515625 7.640625 -1.390625 8.671875 -1.390625 L 8.671875 0 L -0.21875 0 L -0.21875 -1.390625 C 0.34375 -1.460938 0.820312 -1.554688 1.21875 -1.671875 C 1.625 -1.796875 1.976562 -1.96875 2.28125 -2.1875 C 2.59375 -2.414062 2.863281 -2.703125 3.09375 -3.046875 C 3.320312 -3.398438 3.546875 -3.835938 3.765625 -4.359375 L 13.28125 -28.171875 L 14.84375 -28.171875 L 23.15625 -7.53125 C 23.71875 -6.164062 24.203125 -5.070312 24.609375 -4.25 C 25.023438 -3.4375 25.425781 -2.820312 25.8125 -2.40625 C 26.207031 -2 26.628906 -1.734375 27.078125 -1.609375 C 27.535156 -1.484375 28.082031 -1.421875 28.71875 -1.421875 L 28.71875 0 L 16.796875 0 L 16.796875 -1.421875 C 18.085938 -1.421875 18.972656 -1.539062 19.453125 -1.78125 C 19.941406 -2.03125 20.1875 -2.4375 20.1875 -3 C 20.1875 -3.238281 20.175781 -3.460938 20.15625 -3.671875 C 20.132812 -3.878906 20.09375 -4.101562 20.03125 -4.34375 C 19.96875 -4.59375 19.878906 -4.867188 19.765625 -5.171875 C 19.660156 -5.484375 19.519531 -5.84375 19.34375 -6.25 Z M 8.8125 -12.03125 L 17.15625 -12.03125 L 13.09375 -22.828125 Z M 8.8125 -12.03125 "/></g></g></g><g fill="#76751d" fill-opacity="1"><g transform="translate(211.339742, 35.411063)"><g><path d="M 25.390625 0.359375 L 8.015625 -22.53125 L 7.859375 -22.53125 L 7.859375 -6.90625 C 7.859375 -5.6875 7.898438 -4.722656 7.984375 -4.015625 C 8.078125 -3.316406 8.25 -2.769531 8.5 -2.375 C 8.757812 -1.988281 9.125 -1.734375 9.59375 -1.609375 C 10.070312 -1.484375 10.703125 -1.410156 11.484375 -1.390625 L 11.484375 0 L 1.640625 0 L 1.640625 -1.390625 C 2.492188 -1.410156 3.179688 -1.488281 3.703125 -1.625 C 4.234375 -1.757812 4.644531 -2.007812 4.9375 -2.375 C 5.226562 -2.738281 5.421875 -3.253906 5.515625 -3.921875 C 5.617188 -4.597656 5.671875 -5.507812 5.671875 -6.65625 L 5.671875 -21.515625 C 5.671875 -22.535156 5.625 -23.378906 5.53125 -24.046875 C 5.445312 -24.722656 5.273438 -25.253906 5.015625 -25.640625 C 4.765625 -26.023438 4.394531 -26.296875 3.90625 -26.453125 C 3.425781 -26.617188 2.796875 -26.726562 2.015625 -26.78125 L 2.015625 -28.171875 L 9.25 -28.171875 L 25.234375 -6.84375 L 25.390625 -6.84375 L 25.390625 -21.25 C 25.390625 -22.445312 25.34375 -23.40625 25.25 -24.125 C 25.164062 -24.84375 24.992188 -25.394531 24.734375 -25.78125 C 24.484375 -26.175781 24.117188 -26.429688 23.640625 -26.546875 C 23.171875 -26.671875 22.546875 -26.75 21.765625 -26.78125 L 21.765625 -28.171875 L 31.609375 -28.171875 L 31.609375 -26.78125 C 30.753906 -26.75 30.0625 -26.664062 29.53125 -26.53125 C 29.007812 -26.40625 28.601562 -26.15625 28.3125 -25.78125 C 28.019531 -25.414062 27.820312 -24.890625 27.71875 -24.203125 C 27.625 -23.523438 27.578125 -22.628906 27.578125 -21.515625 L 27.578125 0.359375 Z M 25.390625 0.359375 "/></g></g></g><g fill="#76751d" fill-opacity="1"><g transform="translate(81.886379, 75.920912)"><g><path d="M 9.75 -20.453125 C 9.257812 -20.453125 8.878906 -20.367188 8.609375 -20.203125 C 8.335938 -20.046875 8.128906 -19.832031 7.984375 -19.5625 C 7.847656 -19.300781 7.753906 -18.992188 7.703125 -18.640625 C 7.660156 -18.296875 7.640625 -17.953125 7.640625 -17.609375 C 7.640625 -17.359375 7.671875 -17.066406 7.734375 -16.734375 C 7.796875 -16.398438 7.867188 -16.0625 7.953125 -15.71875 C 8.035156 -15.382812 8.125 -15.050781 8.21875 -14.71875 C 8.3125 -14.394531 8.398438 -14.109375 8.484375 -13.859375 C 8.804688 -14.046875 9.140625 -14.304688 9.484375 -14.640625 C 9.828125 -14.972656 10.144531 -15.335938 10.4375 -15.734375 C 10.738281 -16.128906 10.984375 -16.539062 11.171875 -16.96875 C 11.367188 -17.394531 11.46875 -17.804688 11.46875 -18.203125 C 11.46875 -18.460938 11.429688 -18.71875 11.359375 -18.96875 C 11.285156 -19.226562 11.175781 -19.46875 11.03125 -19.6875 C 10.894531 -19.90625 10.710938 -20.085938 10.484375 -20.234375 C 10.265625 -20.378906 10.019531 -20.453125 9.75 -20.453125 Z M 6.84375 -11.328125 C 6.03125 -10.703125 5.378906 -10.03125 4.890625 -9.3125 C 4.410156 -8.601562 4.171875 -7.71875 4.171875 -6.65625 C 4.171875 -5.914062 4.316406 -5.21875 4.609375 -4.5625 C 4.898438 -3.90625 5.285156 -3.320312 5.765625 -2.8125 C 6.253906 -2.300781 6.828125 -1.894531 7.484375 -1.59375 C 8.140625 -1.300781 8.820312 -1.15625 9.53125 -1.15625 C 10.226562 -1.15625 10.921875 -1.296875 11.609375 -1.578125 C 12.304688 -1.867188 12.9375 -2.222656 13.5 -2.640625 C 12.269531 -4.015625 11.078125 -5.398438 9.921875 -6.796875 C 8.773438 -8.191406 7.75 -9.703125 6.84375 -11.328125 Z M 23.859375 -12.65625 C 23.734375 -12.226562 23.632812 -11.832031 23.5625 -11.46875 C 23.5 -11.113281 23.46875 -10.738281 23.46875 -10.34375 C 22.71875 -10.488281 21.953125 -10.582031 21.171875 -10.625 C 20.398438 -10.664062 19.664062 -10.703125 18.96875 -10.734375 C 19.0625 -10.472656 19.109375 -10.21875 19.109375 -9.96875 C 19.117188 -9.726562 19.125 -9.492188 19.125 -9.265625 C 19.125 -8.210938 18.863281 -7.222656 18.34375 -6.296875 C 17.820312 -5.367188 17.210938 -4.535156 16.515625 -3.796875 C 17.441406 -3.253906 18.347656 -2.78125 19.234375 -2.375 C 20.128906 -1.96875 21.039062 -1.765625 21.96875 -1.765625 C 22.394531 -1.765625 22.753906 -1.820312 23.046875 -1.9375 C 23.347656 -2.0625 23.671875 -2.210938 24.015625 -2.390625 L 24.203125 -1.578125 L 21.421875 0.453125 C 21.304688 0.546875 21.15625 0.597656 20.96875 0.609375 C 20.789062 0.628906 20.617188 0.640625 20.453125 0.640625 L 20.125 0.640625 C 19.78125 0.640625 19.351562 0.566406 18.84375 0.421875 C 18.332031 0.273438 17.804688 0.078125 17.265625 -0.171875 C 16.734375 -0.421875 16.210938 -0.6875 15.703125 -0.96875 C 15.203125 -1.257812 14.800781 -1.550781 14.5 -1.84375 C 13.601562 -1.09375 12.609375 -0.488281 11.515625 -0.03125 C 10.421875 0.414062 9.285156 0.640625 8.109375 0.640625 C 7.078125 0.640625 6.148438 0.476562 5.328125 0.15625 C 4.503906 -0.164062 3.789062 -0.601562 3.1875 -1.15625 C 2.59375 -1.71875 2.140625 -2.367188 1.828125 -3.109375 C 1.523438 -3.859375 1.375 -4.671875 1.375 -5.546875 C 1.375 -6.347656 1.503906 -7.09375 1.765625 -7.78125 C 2.035156 -8.46875 2.40625 -9.09375 2.875 -9.65625 C 3.34375 -10.226562 3.875 -10.742188 4.46875 -11.203125 C 5.070312 -11.660156 5.707031 -12.078125 6.375 -12.453125 C 6.0625 -13.128906 5.816406 -13.828125 5.640625 -14.546875 C 5.472656 -15.273438 5.390625 -15.96875 5.390625 -16.625 C 5.390625 -17.28125 5.453125 -17.859375 5.578125 -18.359375 C 5.703125 -18.867188 5.894531 -19.242188 6.15625 -19.484375 L 8.359375 -21.421875 C 8.578125 -21.609375 8.847656 -21.773438 9.171875 -21.921875 C 9.492188 -22.066406 9.960938 -22.140625 10.578125 -22.140625 C 11.515625 -22.140625 12.253906 -21.890625 12.796875 -21.390625 C 13.347656 -20.890625 13.625 -20.160156 13.625 -19.203125 C 13.625 -18.503906 13.476562 -17.84375 13.1875 -17.21875 C 12.90625 -16.59375 12.535156 -16.007812 12.078125 -15.46875 C 11.628906 -14.925781 11.132812 -14.425781 10.59375 -13.96875 C 10.050781 -13.507812 9.519531 -13.109375 9 -12.765625 C 9.925781 -11.242188 10.9375 -9.804688 12.03125 -8.453125 C 13.132812 -7.109375 14.3125 -5.800781 15.5625 -4.53125 C 16.03125 -5.125 16.40625 -5.71875 16.6875 -6.3125 C 16.96875 -6.90625 17.109375 -7.46875 17.109375 -8 C 17.109375 -8.625 17.035156 -9.207031 16.890625 -9.75 C 16.753906 -10.300781 16.578125 -10.617188 16.359375 -10.703125 C 16.117188 -10.785156 15.722656 -10.851562 15.171875 -10.90625 C 14.628906 -10.957031 14.050781 -11.015625 13.4375 -11.078125 L 14.5 -12.5 C 14.925781 -12.488281 15.347656 -12.476562 15.765625 -12.46875 C 16.179688 -12.457031 16.601562 -12.453125 17.03125 -12.453125 L 17.609375 -12.453125 Z M 23.859375 -12.65625 "/></g></g></g><g fill="#76751d" fill-opacity="1"><g transform="translate(110.144473, 75.920912)"><g/></g></g><g fill="#76751d" fill-opacity="1"><g transform="translate(119.508149, 75.920912)"><g><path d="M 20.640625 -1.109375 C 20.171875 -0.816406 19.632812 -0.5625 19.03125 -0.34375 C 18.425781 -0.132812 17.800781 0.0390625 17.15625 0.1875 C 16.519531 0.34375 15.894531 0.457031 15.28125 0.53125 C 14.664062 0.601562 14.113281 0.640625 13.625 0.640625 C 11.695312 0.640625 9.941406 0.375 8.359375 -0.15625 C 6.773438 -0.695312 5.414062 -1.46875 4.28125 -2.46875 C 3.144531 -3.476562 2.265625 -4.707031 1.640625 -6.15625 C 1.023438 -7.601562 0.71875 -9.242188 0.71875 -11.078125 C 0.71875 -12.929688 1.054688 -14.570312 1.734375 -16 C 2.421875 -17.4375 3.382812 -18.671875 4.625 -19.703125 C 5.851562 -20.710938 7.253906 -21.476562 8.828125 -22 C 10.410156 -22.53125 12.113281 -22.796875 13.9375 -22.796875 C 14.664062 -22.796875 15.390625 -22.753906 16.109375 -22.671875 C 16.835938 -22.585938 17.519531 -22.476562 18.15625 -22.34375 C 18.800781 -22.207031 19.394531 -22.0625 19.9375 -21.90625 C 20.488281 -21.75 20.957031 -21.601562 21.34375 -21.46875 C 21.164062 -20.71875 21.019531 -19.925781 20.90625 -19.09375 C 20.789062 -18.257812 20.734375 -17.425781 20.734375 -16.59375 L 19.734375 -16.59375 L 19.734375 -18.890625 C 19.734375 -19.347656 19.457031 -19.726562 18.90625 -20.03125 C 18.363281 -20.332031 17.71875 -20.617188 16.96875 -20.890625 C 16.457031 -21.078125 15.878906 -21.21875 15.234375 -21.3125 C 14.585938 -21.40625 13.96875 -21.453125 13.375 -21.453125 C 11.851562 -21.453125 10.515625 -21.191406 9.359375 -20.671875 C 8.210938 -20.148438 7.253906 -19.445312 6.484375 -18.5625 C 5.722656 -17.675781 5.140625 -16.628906 4.734375 -15.421875 C 4.335938 -14.222656 4.140625 -12.941406 4.140625 -11.578125 C 4.140625 -9.992188 4.390625 -8.550781 4.890625 -7.25 C 5.390625 -5.945312 6.101562 -4.84375 7.03125 -3.9375 C 7.96875 -3.03125 9.085938 -2.332031 10.390625 -1.84375 C 11.691406 -1.351562 13.132812 -1.109375 14.71875 -1.109375 C 15.300781 -1.109375 15.898438 -1.148438 16.515625 -1.234375 C 17.128906 -1.328125 17.722656 -1.457031 18.296875 -1.625 C 18.878906 -1.800781 19.425781 -2.007812 19.9375 -2.25 C 20.445312 -2.488281 20.882812 -2.75 21.25 -3.03125 L 21.546875 -2.703125 Z M 20.640625 -1.109375 "/></g></g></g><g fill="#76751d" fill-opacity="1"><g transform="translate(145.551774, 75.920912)"><g><path d="M 8.484375 -14.015625 C 7.628906 -14.015625 6.914062 -13.847656 6.34375 -13.515625 C 5.78125 -13.191406 5.328125 -12.769531 4.984375 -12.25 C 4.640625 -11.726562 4.390625 -11.117188 4.234375 -10.421875 C 4.085938 -9.734375 4.015625 -9.007812 4.015625 -8.25 C 4.015625 -7.414062 4.097656 -6.535156 4.265625 -5.609375 C 4.441406 -4.691406 4.734375 -3.847656 5.140625 -3.078125 C 5.554688 -2.304688 6.109375 -1.671875 6.796875 -1.171875 C 7.484375 -0.671875 8.335938 -0.421875 9.359375 -0.421875 C 10.085938 -0.421875 10.710938 -0.582031 11.234375 -0.90625 C 11.753906 -1.238281 12.179688 -1.6875 12.515625 -2.25 C 12.859375 -2.8125 13.113281 -3.445312 13.28125 -4.15625 C 13.445312 -4.863281 13.53125 -5.585938 13.53125 -6.328125 C 13.53125 -7.359375 13.410156 -8.34375 13.171875 -9.28125 C 12.941406 -10.21875 12.601562 -11.035156 12.15625 -11.734375 C 11.71875 -12.429688 11.1875 -12.984375 10.5625 -13.390625 C 9.945312 -13.804688 9.253906 -14.015625 8.484375 -14.015625 Z M 7.875 0.640625 C 6.894531 0.640625 5.984375 0.453125 5.140625 0.078125 C 4.304688 -0.296875 3.582031 -0.820312 2.96875 -1.5 C 2.351562 -2.175781 1.875 -2.96875 1.53125 -3.875 C 1.195312 -4.789062 1.03125 -5.789062 1.03125 -6.875 C 1.03125 -8.082031 1.210938 -9.1875 1.578125 -10.1875 C 1.941406 -11.195312 2.472656 -12.0625 3.171875 -12.78125 C 3.878906 -13.5 4.742188 -14.0625 5.765625 -14.46875 C 6.796875 -14.882812 7.953125 -15.09375 9.234375 -15.09375 C 10.253906 -15.09375 11.207031 -14.898438 12.09375 -14.515625 C 12.988281 -14.140625 13.757812 -13.617188 14.40625 -12.953125 C 15.0625 -12.296875 15.578125 -11.519531 15.953125 -10.625 C 16.328125 -9.726562 16.515625 -8.769531 16.515625 -7.75 C 16.515625 -6.519531 16.304688 -5.390625 15.890625 -4.359375 C 15.472656 -3.335938 14.890625 -2.457031 14.140625 -1.71875 C 13.398438 -0.976562 12.515625 -0.398438 11.484375 0.015625 C 10.453125 0.429688 9.328125 0.640625 8.109375 0.640625 Z M 7.875 0.640625 "/></g></g></g></g></g></g></g></g></svg>